{"title":"Kapus Kondyachi Goshta 2016 Marathi DesiPDVDRip x264 AAC [TMB]","uid":15547514,"size":745244454,"categoryP":"video","categoryS":"movies","magnet":"?xt=urn:btih:71d6ef61889b02771ae63d2f635ce67104173003&amp;dn=Kapus+Kondyachi+Goshta+2016+Marathi+DesiPDVDRip+x264+AAC+%5BTMB%5D&amp;tr=udp%3A%2F%2Ftracker.leechers-paradise.org%3A6969&amp;tr=udp%3A%2F%2Fzer0day.ch%3A1337&amp;tr=udp%3A%2F%2Fopen.demonii.com%3A1337&amp;tr=udp%3A%2F%2Ftracker.coppersurfer.tk%3A6969&amp;tr=udp%3A%2F%2Fexodus.desync.com%3A6969","seeders":3,"leechers":0,"uploader":"Manoj_vb","files":2,"time":1470990925,"description":"http://i1306.photobucket.com/albums/s570/zyx55e/44_zpsc46e809d.gif\r\n \nhttp://s25.postimg.org/6wjf55ce7/2_kapus_kondyachi_goshta.jpg\r\n \nhttp://s32.postimg.org/4qvdy0b2t/vlcsnap_0273_09_10_21h00m28s245.png\r\n \nhttp://s32.postimg.org/ekhn7xjit/vlcsnap_4229_11_08_10h16m24s203.png\r\n \nhttp://s32.postimg.org/ocowrbjth/vlcsnap_4344_11_07_09h51m57s752.png\r\n \nhttp://s32.postimg.org/rdacllkid/vlcsnap_4557_01_17_00h18m01s965.png\r\n \nhttp://s32.postimg.org/xi1uyxclx/vlcsnap_5798_10_20_02h50m13s718.png\r\n \nhttp://s32.postimg.org/4xe4y7qj9/vlcsnap_6279_03_04_05h08m19s982.png\r\n \nhttp://s32.postimg.org/nzsgo0v85/vlcsnap_6595_04_30_16h39m47s398.png\r\n \nhttp://s32.postimg.org/azgprl8np/vlcsnap_7810_07_30_06h18m09s943.png\r\n \nhttp://i1306.photobucket.com/albums/s570/zyx55e/oie_11162011MOJeDGQI_zpsc25b2b81.gif\r\n\r\nGeneral\r\nComplete name               : Kapus Kondyachi Goshta 2015 DesiPDVDRip x264 AAC [TMB].mp4\r\nFormat                      : MPEG-4\r\nFormat profile              : Base Media / Version 2\r\nCodec ID                    : mp42 (mp42/isom)\r\nFile size                   : 705 MiB\r\nDuration                    : 1h 45mn\r\nOverall bit rate mode       : Variable\r\nOverall bit rate            : 936 Kbps\r\n\r\nVideo\r\nFormat                      : AVC\r\nFormat/Info                 : Advanced Video Codec\r\nFormat profile              :   \r\nFormat settings, CABAC      : Yes\r\nFormat settings, ReFrames   : 4 frames\r\nCodec ID                    : avc1\r\nCodec ID/Info               : Advanced Video Coding\r\nDuration                    : 1h 45mn\r\nBit rate                    : 809 Kbps\r\nWidth                       : 704 pixels\r\nHeight                      : 324 pixels\r\nDisplay aspect ratio        : 2.2:1\r\nFrame rate mode             : Variable\r\nFrame rate                  : 24.775 fps\r\nMinimum frame rate          : 4.167 fps\r\nMaximum frame rate          : 25.000 fps\r\nOriginal frame rate         : 25.000 fps\r\nColor space                 : YUV\r\nChroma subsampling          : 4:2:0\r\nBit depth                   : 8 bits\r\nScan type                   : Progressive\r\nBits/(Pixel*Frame)          : 0.143\r\nStream size                 : 604 MiB (86%)\r\nWriting library             : x264 core 146 r2538 121396c\r\n\r\nAudio\r\nFormat                      : AAC\r\nFormat/Info                 : Advanced Audio Codec\r\nFormat profile              : LC\r\nCodec ID                    : 40\r\nDuration                    : 1h 45mn\r\nSource duration             : 1h 45mn\r\nBit rate mode               : Variable\r\nBit rate                    : 128 Kbps\r\nChannel(s)                  : 2 channels\r\nChannel positions           : Front: L R\r\nSampling rate               : 48.0 KHz\r\nFrame rate                  : 46.875 fps (1024 spf)\r\nCompression mode            : Lossy\r\nStream size                 : 96.6 MiB (14%)\r\n\r\nSample in Torrent...\r\n\r\nSource : SaketSaket\r\n\r\nRipper : Manojvb\r\n\r\nSeeding 24x7... Extreme Seeding...\r\n\r\n \nhttp://i1306.photobucket.com/albums/s570/zyx55e/oie_1117625zVIGKvnK_zpsc8b6e055.gif","torrent":{"xt":"urn:btih:71d6ef61889b02771ae63d2f635ce67104173003","amp;dn":"Kapus+Kondyachi+Goshta+2016+Marathi+DesiPDVDRip+x264+AAC+%5BTMB%5D","amp;tr":["udp%3A%2F%2Ftracker.leechers-paradise.org%3A6969","udp%3A%2F%2Fzer0day.ch%3A1337","udp%3A%2F%2Fopen.demonii.com%3A1337","udp%3A%2F%2Ftracker.coppersurfer.tk%3A6969","udp%3A%2F%2Fexodus.desync.com%3A6969"],"infoHash":"71d6ef61889b02771ae63d2f635ce67104173003","infoHashBuffer":{"type":"Buffer","data":[113,214,239,97,136,155,2,119,26,230,61,47,99,92,230,113,4,23,48,3]},"announce":[],"urlList":[]}}